# xmcd CD database file
#
# Track frame offsets:
#	150
#	12208
#	27698
#	41664
#	59129
#	79360
#	95261
#	111131
#	130260
#	143902
#	161350
#	176882
#
# Disc length: 2571 seconds
#
# Revision: 1
# Processed by: cddbd v1.4PL0 Copyright (c) Steve Scherf et al.
# Submitted via: CDValet v3.40 - Copyright (c) 1996 - 1998 Greg Leichner
#
DISCID=a80a090c
DTITLE=Henderson, Mike - Silver Lining
DYEAR=1900
DGENRE=
TTITLE0=Do You Ever Dream Of Me
TTITLE1=Only A Memory Away
TTITLE2=Last Call
TTITLE3=Rufus Taylor
TTITLE4=Old River
TTITLE5=Don't Tell Doris
TTITLE6=I Remember You
TTITLE7=There Is A River
TTITLE8=Turn The Green Hills Brown
TTITLE9=Walking Back To Richmond
TTITLE10=Like He Was Still There
TTITLE11=Auction At The Homeplace
EXTD=
EXTT0=
EXTT1=
EXTT2=
EXTT3=
EXTT4=
EXTT5=
EXTT6=
EXTT7=
EXTT8=
EXTT9=
EXTT10=
EXTT11=
PLAYORDER=
